<svg width="97" height="36" viewBox="0 0 97 36" fill="none" xmlns="http://www.w3.org/2000/svg">
<path d="M0.528015 27V3.23999H9.88802C12.744 3.23999 14.832 3.81599 16.152 4.96799C17.472 6.11999 18.132 7.71599 18.132 9.75599C18.132 11.004 17.772 12.12 17.052 13.104C16.332 14.064 15.276 14.676 13.884 14.94V14.976C15.42 15.24 16.608 15.876 17.448 16.884C18.312 17.892 18.744 19.068 18.744 20.412C18.744 22.452 18 24.06 16.512 25.236C15.024 26.412 12.864 27 10.032 27H0.528015ZM4.30802 13.464H9.60002C12.624 13.464 14.136 12.3 14.136 9.97199C14.136 7.64399 12.624 6.47999 9.60002 6.47999H4.30802V13.464ZM4.30802 23.796H10.212C11.724 23.796 12.852 23.484 13.596 22.86C14.364 22.236 14.748 21.36 14.748 20.232C14.748 19.104 14.364 18.228 13.596 17.604C12.852 16.98 11.724 16.668 10.212 16.668H4.30802V23.796Z" fill="black"/>
<path d="M34.228 15.444C34.228 14.244 33.892 13.32 33.22 12.672C32.572 12 31.672 11.664 30.52 11.664C29.44 11.664 28.504 11.916 27.712 12.42C26.944 12.924 26.392 13.74 26.056 14.868L22.816 13.5C23.272 12.036 24.16 10.86 25.48 9.97199C26.824 9.08399 28.552 8.63999 30.664 8.63999C32.08 8.63999 33.34 8.87999 34.444 9.35999C35.572 9.81599 36.448 10.524 37.072 11.484C37.72 12.42 38.044 13.608 38.044 15.048V23.076C38.044 23.964 38.488 24.408 39.376 24.408C39.808 24.408 40.228 24.348 40.636 24.228L40.42 26.892C39.868 27.156 39.172 27.288 38.332 27.288C37.372 27.288 36.544 27.072 35.848 26.64C35.152 26.208 34.684 25.56 34.444 24.696C33.868 25.584 33.04 26.256 31.96 26.712C30.88 27.144 29.8 27.36 28.72 27.36C27.016 27.36 25.6 26.952 24.472 26.136C23.344 25.32 22.78 24.096 22.78 22.464C22.78 21.144 23.212 20.052 24.076 19.188C24.964 18.324 26.212 17.724 27.82 17.388L34.228 16.128V15.444ZM26.668 22.176C26.668 22.848 26.92 23.388 27.424 23.796C27.952 24.18 28.648 24.372 29.512 24.372C30.328 24.372 31.096 24.24 31.816 23.976C32.536 23.712 33.112 23.28 33.544 22.68C34 22.08 34.228 21.3 34.228 20.34V18.828L29.692 19.764C28.66 19.956 27.892 20.232 27.388 20.592C26.908 20.952 26.668 21.48 26.668 22.176Z" fill="black"/>
<path d="M59.7587 3.23999V6.55199H51.6227V27H47.7707V6.55199H39.6347V3.23999H59.7587Z" fill="black"/>
<path d="M67.8109 8.63999C69.9469 8.63999 71.6509 9.10799 72.9229 10.044C74.1949 10.98 75.1069 12.192 75.6589 13.68L72.0229 15.12C71.7109 14.016 71.2069 13.176 70.5109 12.6C69.8389 12 68.9509 11.7 67.8469 11.7C66.2389 11.7 64.9789 12.252 64.0669 13.356C63.1789 14.436 62.7349 15.996 62.7349 18.036C62.7349 20.052 63.1909 21.6 64.1029 22.68C65.0149 23.76 66.2629 24.3 67.8469 24.3C69.0949 24.3 70.0789 24 70.7989 23.4C71.5429 22.8 72.0349 21.936 72.2749 20.808L75.7669 21.996C75.2629 23.628 74.3389 24.936 72.9949 25.92C71.6509 26.88 69.9589 27.36 67.9189 27.36C66.1429 27.36 64.5709 26.988 63.2029 26.244C61.8589 25.5 60.8029 24.432 60.0349 23.04C59.2669 21.624 58.8829 19.944 58.8829 18C58.8829 16.056 59.2669 14.388 60.0349 12.996C60.8029 11.58 61.8589 10.5 63.2029 9.75599C64.5469 9.01199 66.0829 8.63999 67.8109 8.63999Z" fill="black"/>
<path d="M80.2497 27V0.899994H84.1017V11.88C84.7017 10.752 85.5057 9.93599 86.5137 9.43199C87.5457 8.90399 88.6857 8.63999 89.9337 8.63999C91.2057 8.63999 92.3457 8.89199 93.3537 9.39599C94.3857 9.87599 95.2017 10.62 95.8017 11.628C96.4017 12.612 96.7017 13.848 96.7017 15.336V27H92.8497V16.56C92.8497 14.76 92.4777 13.524 91.7337 12.852C91.0137 12.156 90.1017 11.808 88.9977 11.808C88.2057 11.808 87.4377 12 86.6937 12.384C85.9497 12.744 85.3257 13.344 84.8217 14.184C84.3417 15 84.1017 16.104 84.1017 17.496V27H80.2497Z" fill="black"/>
<rect y="33" width="97" height="3" fill="black"/>
</svg>
